<svg id="Layer_1" data-name="Layer 1" xmlns="http://www.w3.org/2000/svg" viewBox="0 0 858 858"><defs><style>.cls-1{fill:#eb2f06;}.cls-2{fill:#fff;}</style></defs><circle class="cls-1" cx="429" cy="429" r="429"/><path class="cls-2" d="M551.25,1126.88c8-12.65,16.4-25.05,23.84-38s13.29-26.8,21-39.56c6.46-10.73,14.88-20.26,21.88-30.7,9-13.38,14.79-28.26,15.24-44.4.66-23.38.47-46.8.07-70.19a176.86,176.86,0,0,0-25-88c-11.95-20.28-25.15-39.84-36.53-60.41a562.85,562.85,0,0,1-25.3-52.78c-9.1-21.45-17.11-43.37-25.28-65.2A34.8,34.8,0,0,1,519.31,625c.05-2.69,2-5.35,3.06-8,3.2,1.3,7.58,1.7,9.4,4.06,7.24,9.41,13.79,19.36,20.35,29.28,1.08,1.64.54,4.29,1.44,6.14a99.21,99.21,0,0,0,6.34,10.93c2,3.07,4.09,6.28,6.78,8.71s7.25,3,8.85,5.67c7.43,12.39,13.93,25.34,21.16,37.86,2.54,4.41,5.61,8.89,9.47,12.09,15.68,13,26.28,29.91,37.14,46.68,8.59,13.26,18.22,25.89,26,39.59,12.35,21.73,23.66,43.81,24.88,69.94.78,16.66,4.69,33.18,7.38,51,1.52-1.75,3.68-3.28,4.49-5.34,7.52-19,14.67-38.2,22.22-57.21,6-15,12.47-29.77,18.41-44.77,1.55-3.92,1.06-8.78,3-12.38a18.7,18.7,0,0,1,8.74-7.54c1.22-.51,5.16,3.22,6.51,5.73a43.82,43.82,0,0,1,5,13.79c.53,3.54-1.13,7.42-2.22,13.32,6.11,9.45,7.48,21.89,1.88,35.08-.81,1.9-1.5,4.62-.76,6.3,6.35,14.42-.59,27.52-3.83,40.92-2.77,11.46-5.06,23.22-9.52,34-6.09,14.78-14.06,28.79-21.16,43.16-2.34,4.76-5.11,9.43-6.57,14.46-4.22,14.55-12,26-27.44,29.25-14.46,3-22.85,14.19-33.59,22.27-9.47,7.13-18.43,15.16-28.63,21-23,13.23-46.41,25.68-70,37.69-4.33,2.2-10.48.84-15.79,1.12Z" transform="translate(-111 -531)"/><path class="cls-2" d="M487,754.51c-2.88-8-5.88-15.89-8.43-23.88a16.17,16.17,0,0,1-.4-8.25c.37-1.55,2.69-3,4.43-3.71.6-.26,2.81,1.43,3.14,2.56,4.32,14.74,8.63,29.49,12.43,44.36.8,3.12-.46,6.76-.95,12.1l-11.43-6.75c1.68,4.34,3.44,8.24,4.65,12.3.55,1.84.89,4.77-.13,5.9-5.87,6.56-4.11,12.4-1.09,20,6.31,15.85,1.94,31.14-6.31,45.47-1,1.71-2.39,3.65-2.32,5.43a168.29,168.29,0,0,1-7.13,54.42c-4.44,15.14-4.38,31.62-6.05,47.53-1.45,13.82-1.05,28-4.11,41.43-4.94,21.74.93,40.93,8.42,60.82,5.82,15.46,8.5,32.1,12.63,48.2a10.37,10.37,0,0,0,1.81,4.21c7.51,8.47,14.59,17.07,16.64,28.81.33,1.89,3.25,3.38,5.06,5,5.53,4.81,11.43,9.26,16.48,14.53,1.87,1.94,2.69,5.94,2.19,8.68-.27,1.48-4.42,3.38-6.67,3.19-21.51-1.8-42.63-5.62-62.36-14.85-10-4.66-20-9.38-29.46-14.89-5.9-3.42-11-8.31-16.3-12.67-10.44-8.52-20.23-18-31.35-25.51-15.65-10.58-24.06-26.14-31.32-42.35-5.59-12.47-8.57-26.08-13.74-38.77-3.22-7.89-8.36-15-12.64-22.47C311,984.86,303.82,962.9,300,939.71c-1.45-8.76-4.05-17.32-6-26-2.43-10.71,2-15.23,13.9-12.4-3.54-4.82-6.91-8.51-9.13-12.8-1.21-2.31-.45-5.65-.58-8.52,2.29.71,5.42.73,6.71,2.27a244.48,244.48,0,0,1,14.67,19.68c2.54,3.78,4.26,8.13-1.64,9.36,1.23,4,2.54,8.21,4.3,13.92-.73-.22,1-.14,2.12.72,4.13,3.17,12.39-4.34,13.91,5.61.87,5.65,3.22,11.15,3.53,16.79.44,8.38,6.53,9.33,13,11.8-3.38-6.71-6.45-12.57-9.18-18.59-.23-.51,1.87-2.07,4.49-4.84,6.47,8.24,12.6,15.63,18.2,23.4,2.37,3.27,4.1,7.11-2.08,9.52-1,.4-1.32,6.91.22,9,9.34,12.84,19.3,25.22,29.45,38.25,3.14-16.78,5.59-32.65,9.15-48.26,8.18-35.9,15.7-72,31.72-105.63,5.66-11.9,9.43-24.7,14.93-36.69,9-19.59,13.89-40.18,16.89-61.36C469.63,757.22,477.61,752.71,487,754.51Z" transform="translate(-111 -531)"/><path class="cls-2" d="M727.38,1294c-4.61-2.33-9.12-4.9-13.87-6.94a106.53,106.53,0,0,0-16.27-6c-13.47-3.34-27.1-6-40.63-9.18-12-2.79-24.52-4.49-35.86-9-15.26-6.12-26.75,2.83-39.53,7-10,3.23-19.48,5.68-30.57,3.25-8.63-1.88-18.24-3-27,4.6-3.87,3.34-13.42,2.75-19.17.64-7.23-2.67-13-3.74-19.46.84-1.12.81-3,.7-4.52.77q-43.17,2-86.33,3.8c-5,.21-10,.09-15,0-9.93-.2-20.51,2.24-29.21-8.83,4.77-2.67,9.55-6,14.84-8.17,13.7-5.5,28.26-9.2,41.28-15.94,16.35-8.45,34.05-10.45,51.27-15.09s34.48-10.68,50.4-18.72c9.85-5,12.81-17.24,14.92-28,1.64-8.47,4.85-10.56,13.15-7.24,33.15,13.3,62.82,32.21,91.29,53.69,12.88,9.71,28.09,17,43.22,22.87,16.27,6.32,31.5,13.62,45,24.73,4.13,3.4,9.23,5.61,13.88,8.37Z" transform="translate(-111 -531)"/><path class="cls-2" d="M553,1110.67c-3-1.74-6.75-2.86-8.9-5.34-11.71-13.51-22.78-27.58-34.58-41-8.47-9.65-9.68-35.73-3.74-47.83,4.09-8.37,5.1-18.23,7.64-27.37,3.51-12.6,6.44-25.42,10.94-37.66,5.55-15.07,11.84-29.64,13.68-46,1.46-13,6.4-25.56,8.16-38.54,1.6-11.75,1-23.79,1.33-35.71,0-1.53-.74-3.26-.27-4.59,2-5.62,2.09-10.47-3.36-14.47-.87-.64-.12-3.49-.12-5.3,7.51-1.46,17.26,6.56,20.95,16.42,1.32,3.54,4,6.6,6.12,9.78.8,1.18,3.07,2.5,2.86,3.06-3.44,9,4.88,11.66,8.72,16.66,4.35,5.66,6.88,11.1,5.28,19-1.07,5.31,2.55,11.4,3.08,17.23,1,11,2.28,22.17,1.65,33.15-.67,11.9-2.08,24.07-5.54,35.41-4.68,15.34-7.66,30.57-8.07,46.64-.16,6.09-4.57,12-6.76,18.14-5.76,16-11.88,31.95-16.73,48.24-1.65,5.52,0,12,.23,18.09.28,6.53.69,13.07,1,19.6Z" transform="translate(-111 -531)"/></svg>